<mxfile host="65bd71144e">
    <diagram id="7aXQe_hq7OsXxpLuf5KB" name="Page-1">
        <mxGraphModel dx="834" dy="1555" grid="1" gridSize="10" guides="1" tooltips="1" connect="1" arrows="1" fold="1" page="1" pageScale="1" pageWidth="827" pageHeight="1169" math="0" shadow="0">
            <root>
                <mxCell id="0"/>
                <mxCell id="1" parent="0"/>
                <mxCell id="2" value="&lt;div style=&quot;text-align: start;&quot;&gt;&lt;span style=&quot;background-color: initial; font-size: 14px;&quot;&gt;&lt;font face=&quot;-apple-system, system-ui, Segoe WPC, Segoe UI, system-ui, Ubuntu, Droid Sans, sans-serif&quot; color=&quot;#cccccc&quot;&gt;TASK: Make a Codewars Challenge&lt;/font&gt;&lt;/span&gt;&lt;/div&gt;" style="rounded=0;whiteSpace=wrap;html=1;" parent="1" vertex="1">
                    <mxGeometry x="310" y="-60" width="440" height="60" as="geometry"/>
                </mxCell>
                <mxCell id="3" value="&lt;div style=&quot;text-align: center;&quot;&gt;&lt;span style=&quot;color: rgb(204, 204, 204); font-family: -apple-system, &amp;quot;system-ui&amp;quot;, &amp;quot;Segoe WPC&amp;quot;, &amp;quot;Segoe UI&amp;quot;, system-ui, Ubuntu, &amp;quot;Droid Sans&amp;quot;, sans-serif; font-size: 14px; text-align: start; background-color: initial;&quot;&gt;1. PICK A TOPIC&lt;/span&gt;&lt;/div&gt;&lt;br&gt;&lt;span style=&quot;color: rgb(204, 204, 204); font-family: -apple-system, &amp;quot;system-ui&amp;quot;, &amp;quot;Segoe WPC&amp;quot;, &amp;quot;Segoe UI&amp;quot;, system-ui, Ubuntu, &amp;quot;Droid Sans&amp;quot;, sans-serif; font-size: 14px; text-align: start;&quot;&gt;Numerical Board Generator with Emojis&lt;/span&gt;&lt;br&gt;&lt;br&gt;&lt;span style=&quot;color: rgb(204, 204, 204); font-family: -apple-system, &amp;quot;system-ui&amp;quot;, &amp;quot;Segoe WPC&amp;quot;, &amp;quot;Segoe UI&amp;quot;, system-ui, Ubuntu, &amp;quot;Droid Sans&amp;quot;, sans-serif; font-size: 14px; text-align: start;&quot;&gt;DEFINE END USER:&lt;/span&gt;&lt;br&gt;&lt;span style=&quot;color: rgb(204, 204, 204); font-family: -apple-system, &amp;quot;system-ui&amp;quot;, &amp;quot;Segoe WPC&amp;quot;, &amp;quot;Segoe UI&amp;quot;, system-ui, Ubuntu, &amp;quot;Droid Sans&amp;quot;, sans-serif; font-size: 14px; text-align: start;&quot;&gt;As a junior developer at a gaming development company, you've been assigned to contribute to the creation of a new board game. Your task is to develop a code that will generate the numerical layout for the game's board.&amp;nbsp;&lt;/span&gt;" style="rounded=0;whiteSpace=wrap;html=1;" parent="1" vertex="1">
                    <mxGeometry x="40" y="40" width="280" height="450" as="geometry"/>
                </mxCell>
                <mxCell id="4" value="&lt;span style=&quot;color: rgb(204, 204, 204); font-family: -apple-system, &amp;quot;system-ui&amp;quot;, &amp;quot;Segoe WPC&amp;quot;, &amp;quot;Segoe UI&amp;quot;, system-ui, Ubuntu, &amp;quot;Droid Sans&amp;quot;, sans-serif; font-size: 14px; text-align: start;&quot;&gt;2. Define ideal features&lt;br&gt;&lt;ol&gt;&lt;li&gt;&lt;span style=&quot;color: rgb(204, 204, 204); font-family: -apple-system, &amp;quot;system-ui&amp;quot;, &amp;quot;Segoe WPC&amp;quot;, &amp;quot;Segoe UI&amp;quot;, system-ui, Ubuntu, &amp;quot;Droid Sans&amp;quot;, sans-serif; font-size: 14px; text-align: start;&quot;&gt;The game board is expected to vary in size, determined by an integer input ranging from 4 to 10 inclusively.&lt;/span&gt;&lt;/li&gt;&lt;li&gt;&lt;span style=&quot;color: rgb(204, 204, 204); font-family: -apple-system, &amp;quot;system-ui&amp;quot;, &amp;quot;Segoe WPC&amp;quot;, &amp;quot;Segoe UI&amp;quot;, system-ui, Ubuntu, &amp;quot;Droid Sans&amp;quot;, sans-serif; font-size: 14px; text-align: start;&quot;&gt;&amp;nbsp;If any other value is entered, the code should return 0.&lt;br&gt;&lt;/span&gt;&lt;/li&gt;&lt;li&gt;&lt;span style=&quot;color: rgb(204, 204, 204); font-family: -apple-system, &amp;quot;system-ui&amp;quot;, &amp;quot;Segoe WPC&amp;quot;, &amp;quot;Segoe UI&amp;quot;, system-ui, Ubuntu, &amp;quot;Droid Sans&amp;quot;, sans-serif; font-size: 14px; text-align: start;&quot;&gt;Every fourth number on the board should be replaced with a flames emoji ðŸ”¥&lt;br&gt;&lt;/span&gt;&lt;/li&gt;&lt;li&gt;&lt;span style=&quot;color: rgb(204, 204, 204); font-family: -apple-system, &amp;quot;system-ui&amp;quot;, &amp;quot;Segoe WPC&amp;quot;, &amp;quot;Segoe UI&amp;quot;, system-ui, Ubuntu, &amp;quot;Droid Sans&amp;quot;, sans-serif; font-size: 14px; text-align: start;&quot;&gt;The last field on the board should be replaced with an emoji of fireworks ðŸŽ‡ to signify the end of the game&lt;/span&gt;&lt;/li&gt;&lt;li&gt;&lt;span style=&quot;color: rgb(204, 204, 204); font-family: -apple-system, &amp;quot;system-ui&amp;quot;, &amp;quot;Segoe WPC&amp;quot;, &amp;quot;Segoe UI&amp;quot;, system-ui, Ubuntu, &amp;quot;Droid Sans&amp;quot;, sans-serif; font-size: 14px; text-align: start;&quot;&gt;The board should be represented visually with each cell enclosed in square brackets &quot;[ ]&quot;&lt;br&gt;&lt;/span&gt;&lt;/li&gt;&lt;li&gt;&lt;span style=&quot;color: rgb(204, 204, 204); font-family: -apple-system, &amp;quot;system-ui&amp;quot;, &amp;quot;Segoe WPC&amp;quot;, &amp;quot;Segoe UI&amp;quot;, system-ui, Ubuntu, &amp;quot;Droid Sans&amp;quot;, sans-serif; font-size: 14px; text-align: start;&quot;&gt;Numbers should be displayed inside [ ] brackets. Single digit numbers should have 0 added to the front&lt;br&gt;&lt;/span&gt;&lt;/li&gt;&lt;li&gt;&lt;span style=&quot;color: rgb(204, 204, 204); font-family: -apple-system, &amp;quot;system-ui&amp;quot;, &amp;quot;Segoe WPC&amp;quot;, &amp;quot;Segoe UI&amp;quot;, system-ui, Ubuntu, &amp;quot;Droid Sans&amp;quot;, sans-serif; font-size: 14px; text-align: start;&quot;&gt;The output should be an array representating the game board as described&lt;br&gt;&lt;/span&gt;&lt;/li&gt;&lt;/ol&gt;&lt;/span&gt;" style="rounded=0;whiteSpace=wrap;html=1;" parent="1" vertex="1">
                    <mxGeometry x="400" y="40" width="280" height="450" as="geometry"/>
                </mxCell>
                <mxCell id="5" value="&lt;span style=&quot;color: rgb(204, 204, 204); font-family: -apple-system, &amp;quot;system-ui&amp;quot;, &amp;quot;Segoe WPC&amp;quot;, &amp;quot;Segoe UI&amp;quot;, system-ui, Ubuntu, &amp;quot;Droid Sans&amp;quot;, sans-serif; font-size: 14px; text-align: start;&quot;&gt;Expected output:&lt;/span&gt;&lt;br&gt;&lt;br&gt;&lt;br&gt;&lt;div style=&quot;text-align: left;&quot;&gt;&lt;span style=&quot;color: rgb(204, 204, 204); font-family: -apple-system, &amp;quot;system-ui&amp;quot;, &amp;quot;Segoe WPC&amp;quot;, &amp;quot;Segoe UI&amp;quot;, system-ui, Ubuntu, &amp;quot;Droid Sans&amp;quot;, sans-serif; font-size: 14px; background-color: initial;&quot;&gt;[&lt;/span&gt;&lt;/div&gt;&lt;span style=&quot;color: rgb(204, 204, 204); font-family: -apple-system, &amp;quot;system-ui&amp;quot;, &amp;quot;Segoe WPC&amp;quot;, &amp;quot;Segoe UI&amp;quot;, system-ui, Ubuntu, &amp;quot;Droid Sans&amp;quot;, sans-serif; font-size: 14px; text-align: start;&quot;&gt;['[01]', '[02]', '[03]', '[ðŸ”¥]', '[05]'],&lt;/span&gt;&lt;br style=&quot;color: rgb(204, 204, 204); font-family: -apple-system, &amp;quot;system-ui&amp;quot;, &amp;quot;Segoe WPC&amp;quot;, &amp;quot;Segoe UI&amp;quot;, system-ui, Ubuntu, &amp;quot;Droid Sans&amp;quot;, sans-serif; font-size: 14px; text-align: start;&quot;&gt;&lt;span style=&quot;color: rgb(204, 204, 204); font-family: -apple-system, &amp;quot;system-ui&amp;quot;, &amp;quot;Segoe WPC&amp;quot;, &amp;quot;Segoe UI&amp;quot;, system-ui, Ubuntu, &amp;quot;Droid Sans&amp;quot;, sans-serif; font-size: 14px; text-align: start;&quot;&gt;['[06]', '[07]', '[ðŸ”¥]', '[09]', '[10]'],&lt;/span&gt;&lt;br style=&quot;color: rgb(204, 204, 204); font-family: -apple-system, &amp;quot;system-ui&amp;quot;, &amp;quot;Segoe WPC&amp;quot;, &amp;quot;Segoe UI&amp;quot;, system-ui, Ubuntu, &amp;quot;Droid Sans&amp;quot;, sans-serif; font-size: 14px; text-align: start;&quot;&gt;&lt;span style=&quot;color: rgb(204, 204, 204); font-family: -apple-system, &amp;quot;system-ui&amp;quot;, &amp;quot;Segoe WPC&amp;quot;, &amp;quot;Segoe UI&amp;quot;, system-ui, Ubuntu, &amp;quot;Droid Sans&amp;quot;, sans-serif; font-size: 14px; text-align: start;&quot;&gt;['[11]', '[ðŸ”¥]', '[13]', '[14]', '[15]'],&lt;/span&gt;&lt;br style=&quot;color: rgb(204, 204, 204); font-family: -apple-system, &amp;quot;system-ui&amp;quot;, &amp;quot;Segoe WPC&amp;quot;, &amp;quot;Segoe UI&amp;quot;, system-ui, Ubuntu, &amp;quot;Droid Sans&amp;quot;, sans-serif; font-size: 14px; text-align: start;&quot;&gt;&lt;span style=&quot;color: rgb(204, 204, 204); font-family: -apple-system, &amp;quot;system-ui&amp;quot;, &amp;quot;Segoe WPC&amp;quot;, &amp;quot;Segoe UI&amp;quot;, system-ui, Ubuntu, &amp;quot;Droid Sans&amp;quot;, sans-serif; font-size: 14px; text-align: start;&quot;&gt;['[ðŸ”¥]', '[17]', '[18]', '[19]', '[ðŸ”¥]'],&lt;/span&gt;&lt;br style=&quot;color: rgb(204, 204, 204); font-family: -apple-system, &amp;quot;system-ui&amp;quot;, &amp;quot;Segoe WPC&amp;quot;, &amp;quot;Segoe UI&amp;quot;, system-ui, Ubuntu, &amp;quot;Droid Sans&amp;quot;, sans-serif; font-size: 14px; text-align: start;&quot;&gt;&lt;span style=&quot;color: rgb(204, 204, 204); font-family: -apple-system, &amp;quot;system-ui&amp;quot;, &amp;quot;Segoe WPC&amp;quot;, &amp;quot;Segoe UI&amp;quot;, system-ui, Ubuntu, &amp;quot;Droid Sans&amp;quot;, sans-serif; font-size: 14px; text-align: start;&quot;&gt;['[21]', '[22]', '[23]', '[&lt;/span&gt;&lt;span style=&quot;color: rgb(206, 145, 120); background-color: rgb(31, 31, 31); font-family: Menlo, Monaco, &amp;quot;Courier New&amp;quot;, monospace;&quot;&gt;ðŸ”¥&lt;/span&gt;&lt;span style=&quot;color: rgb(204, 204, 204); font-family: -apple-system, &amp;quot;system-ui&amp;quot;, &amp;quot;Segoe WPC&amp;quot;, &amp;quot;Segoe UI&amp;quot;, system-ui, Ubuntu, &amp;quot;Droid Sans&amp;quot;, sans-serif; font-size: 14px; text-align: start; background-color: initial;&quot;&gt;]', '[ðŸŽ†]']&lt;/span&gt;&lt;br&gt;&lt;div style=&quot;text-align: left;&quot;&gt;&lt;span style=&quot;color: rgb(204, 204, 204); font-family: -apple-system, &amp;quot;system-ui&amp;quot;, &amp;quot;Segoe WPC&amp;quot;, &amp;quot;Segoe UI&amp;quot;, system-ui, Ubuntu, &amp;quot;Droid Sans&amp;quot;, sans-serif; font-size: 14px; background-color: initial;&quot;&gt;]&lt;/span&gt;&lt;/div&gt;" style="rounded=0;whiteSpace=wrap;html=1;" parent="1" vertex="1">
                    <mxGeometry x="760" y="40" width="280" height="450" as="geometry"/>
                </mxCell>
                <mxCell id="8" value="&lt;span style=&quot;color: rgb(204, 204, 204); font-family: -apple-system, &amp;quot;system-ui&amp;quot;, &amp;quot;Segoe WPC&amp;quot;, &amp;quot;Segoe UI&amp;quot;, system-ui, Ubuntu, &amp;quot;Droid Sans&amp;quot;, sans-serif; font-size: 14px; text-align: start;&quot;&gt;MVP 1:&lt;br&gt;&lt;ol&gt;&lt;li&gt;Create a clear description what is expected in this kata&lt;/li&gt;&lt;li&gt;Include an example - Input, Expected output&lt;/li&gt;&lt;li&gt;Include any constraints&lt;/li&gt;&lt;/ol&gt;&lt;/span&gt;" style="rounded=0;whiteSpace=wrap;html=1;" parent="1" vertex="1">
                    <mxGeometry x="200" y="560" width="280" height="500" as="geometry"/>
                </mxCell>
                <mxCell id="9" value="" style="endArrow=classic;html=1;exitX=1;exitY=0.5;exitDx=0;exitDy=0;entryX=0;entryY=0.5;entryDx=0;entryDy=0;" parent="1" source="3" target="4" edge="1">
                    <mxGeometry width="50" height="50" relative="1" as="geometry">
                        <mxPoint x="630" y="510" as="sourcePoint"/>
                        <mxPoint x="680" y="460" as="targetPoint"/>
                    </mxGeometry>
                </mxCell>
                <mxCell id="10" value="" style="endArrow=classic;html=1;exitX=1;exitY=0.5;exitDx=0;exitDy=0;entryX=0;entryY=0.5;entryDx=0;entryDy=0;" parent="1" source="4" target="5" edge="1">
                    <mxGeometry width="50" height="50" relative="1" as="geometry">
                        <mxPoint x="630" y="510" as="sourcePoint"/>
                        <mxPoint x="680" y="460" as="targetPoint"/>
                    </mxGeometry>
                </mxCell>
                <mxCell id="11" value="" style="endArrow=classic;html=1;entryX=0.5;entryY=0;entryDx=0;entryDy=0;exitX=0.5;exitY=1;exitDx=0;exitDy=0;" parent="1" source="5" target="8" edge="1">
                    <mxGeometry width="50" height="50" relative="1" as="geometry">
                        <mxPoint x="590" y="570" as="sourcePoint"/>
                        <mxPoint x="640" y="520" as="targetPoint"/>
                    </mxGeometry>
                </mxCell>
                <mxCell id="12" value="&lt;span style=&quot;color: rgb(204, 204, 204); font-family: -apple-system, &amp;quot;system-ui&amp;quot;, &amp;quot;Segoe WPC&amp;quot;, &amp;quot;Segoe UI&amp;quot;, system-ui, Ubuntu, &amp;quot;Droid Sans&amp;quot;, sans-serif; font-size: 14px; text-align: start;&quot;&gt;MVP 1 Reflection:&lt;br&gt;I asked my team to read through my description and made a few changes based on their feedback.&lt;br&gt;&lt;br&gt;&lt;/span&gt;" style="rounded=0;whiteSpace=wrap;html=1;" parent="1" vertex="1">
                    <mxGeometry x="600" y="561" width="280" height="500" as="geometry"/>
                </mxCell>
                <mxCell id="13" value="" style="endArrow=classic;html=1;exitX=1;exitY=0.5;exitDx=0;exitDy=0;entryX=0;entryY=0.5;entryDx=0;entryDy=0;" parent="1" source="8" target="12" edge="1">
                    <mxGeometry width="50" height="50" relative="1" as="geometry">
                        <mxPoint x="660" y="710" as="sourcePoint"/>
                        <mxPoint x="710" y="660" as="targetPoint"/>
                    </mxGeometry>
                </mxCell>
                <mxCell id="16" value="MVP 2 Reflection:&lt;br&gt;It was a little bit confusing to check if the returned array matches what is expected. But after reading the documentation, I was able to implement it in my tests." style="rounded=0;whiteSpace=wrap;html=1;" parent="1" vertex="1">
                    <mxGeometry x="610" y="1200" width="280" height="505" as="geometry"/>
                </mxCell>
                <mxCell id="17" value="" style="endArrow=classic;html=1;exitX=1;exitY=0.5;exitDx=0;exitDy=0;entryX=0;entryY=0.5;entryDx=0;entryDy=0;" parent="1" source="30" target="16" edge="1">
                    <mxGeometry width="50" height="50" relative="1" as="geometry">
                        <mxPoint x="480" y="1375" as="sourcePoint"/>
                        <mxPoint x="710" y="1100" as="targetPoint"/>
                    </mxGeometry>
                </mxCell>
                <mxCell id="18" value="" style="endArrow=classic;html=1;exitX=0.5;exitY=1;exitDx=0;exitDy=0;entryX=0.5;entryY=0;entryDx=0;entryDy=0;" parent="1" source="12" target="30" edge="1">
                    <mxGeometry width="50" height="50" relative="1" as="geometry">
                        <mxPoint x="590" y="930" as="sourcePoint"/>
                        <mxPoint x="340" y="1190" as="targetPoint"/>
                    </mxGeometry>
                </mxCell>
                <mxCell id="30" value="&lt;span style=&quot;color: rgb(204, 204, 204); font-family: -apple-system, &amp;quot;system-ui&amp;quot;, &amp;quot;Segoe WPC&amp;quot;, &amp;quot;Segoe UI&amp;quot;, system-ui, Ubuntu, &amp;quot;Droid Sans&amp;quot;, sans-serif; font-size: 14px; text-align: start;&quot;&gt;MVP 2:&lt;br&gt;&lt;ol&gt;&lt;li&gt;&amp;nbsp;Following TDD principles, first write a test that fails&lt;/li&gt;&lt;li&gt;Implement minimum code to make the test pass&lt;/li&gt;&lt;li&gt;Refactor the code&lt;/li&gt;&lt;li&gt;Add test for invalid inputs&lt;/li&gt;&lt;li&gt;Add test to check if 1st square is returned as [01] when size of the board is selected as 4&lt;/li&gt;&lt;li&gt;Write test to check if number 4 is replaced with fire emoji&lt;/li&gt;&lt;li&gt;Check if n^2 square is replaced with fireworks emoji&lt;/li&gt;&lt;li&gt;Check if the length of the array is equal to the size&lt;/li&gt;&lt;li&gt;Check if the length of each element is equal to the size&lt;/li&gt;&lt;li&gt;Check if the first element has numbers 1-6 (including fire emoji) for size 6&lt;/li&gt;&lt;li&gt;Check all the numbers for array size 5&lt;/li&gt;&lt;/ol&gt;&lt;/span&gt;" style="rounded=0;whiteSpace=wrap;html=1;" vertex="1" parent="1">
                    <mxGeometry x="200" y="1200" width="280" height="500" as="geometry"/>
                </mxCell>
            </root>
        </mxGraphModel>
    </diagram>
</mxfile>